# xmcd CD database file
#
# Track frame offsets:
#	150
#	14662
#	33992
#	55320
#	71092
#	83576
#	106893
#	129026
#	145343
#	161967
#	187791
#	208420
#
# Disc length: 3172 seconds
#
# Revision: 0
# Processed by: cddbd v1.5.2PL0 Copyright (c) Steve Scherf et al.
# Submitted via: CDex 1.51
#
DISCID=a60c620c
DTITLE=Modern Earl - Devil´s Playhouse
DYEAR=2009
DGENRE=Country
TTITLE0=Twelve Steppin
TTITLE1=Pais to Party
TTITLE2=Devil´s Playhouse
TTITLE3=Hardly Livin
TTITLE4=Hardly Livin Jam
TTITLE5=Hennessee Sam
TTITLE6=Dirt Road to Damascus
TTITLE7=Ain´t Complainin
TTITLE8=Folsom Prison Blues
TTITLE9=Ringman Blues
TTITLE10=Will the Circle be unbroken
TTITLE11=In the Pines
EXTD=YEAR: 2009
EXTT0=
EXTT1=
EXTT2=
EXTT3=
EXTT4=
EXTT5=
EXTT6=
EXTT7=
EXTT8=
EXTT9=
EXTT10=
EXTT11=
PLAYORDER=
